<svg xmlns="http://www.w3.org/2000/svg" xmlns:xlink="http://www.w3.org/1999/xlink" width="1024" zoomAndPan="magnify" viewBox="0 0 768 767.999994" height="1024" preserveAspectRatio="xMidYMid meet" version="1.2"><defs/><g id="f60dab0f51"><rect x="0" width="768" y="0" height="767.999994" style="fill:#ffffff;fill-opacity:1;stroke:none;"/><rect x="0" width="768" y="0" height="767.999994" style="fill:#fdff9b;fill-opacity:1;stroke:none;"/><g style="fill:#181819;fill-opacity:1;"><g transform="translate(234.294505, 542.894993)"><path style="stroke:none" d="M 70.953125 -154.625 C 172.128906 -169.125 229.144531 -192.640625 242 -225.171875 C 243.632812 -229.828125 244.453125 -235.707031 244.453125 -242.8125 C 244.453125 -263.050781 235.566406 -274.535156 217.796875 -277.265625 C 206.304688 -279.179688 183.472656 -279.863281 149.296875 -279.3125 C 114.296875 -278.769531 92.832031 -277.269531 84.90625 -274.8125 C 76.15625 -271.800781 71.503906 -266.191406 70.953125 -257.984375 C 71.234375 -234.472656 71.234375 -200.019531 70.953125 -154.625 Z M 71.78125 -25.84375 C 190.445312 -28.851562 255.25 -47.035156 266.1875 -80.390625 C 268.375 -86.953125 269.46875 -93.378906 269.46875 -99.671875 C 269.46875 -114.160156 264.066406 -126.941406 253.265625 -138.015625 C 242.472656 -149.085938 227.503906 -156.675781 208.359375 -160.78125 C 173.910156 -146.289062 127.835938 -134.394531 70.140625 -125.09375 C 70.140625 -108.414062 70.273438 -91.191406 70.546875 -73.421875 C 71.097656 -48.804688 71.507812 -32.945312 71.78125 -25.84375 Z M 195.234375 -5.328125 C 178.285156 -2.328125 156.820312 -0.00390625 130.84375 1.640625 C 110.882812 2.734375 90.785156 3.691406 70.546875 4.515625 C 59.066406 5.054688 51 3.890625 46.34375 1.015625 C 41.695312 -1.847656 39.375 -7.65625 39.375 -16.40625 C 38.28125 -71.09375 38.414062 -152.988281 39.78125 -262.09375 C 40.332031 -275.488281 43.273438 -285.332031 48.609375 -291.625 C 53.941406 -297.914062 63.441406 -302.15625 77.109375 -304.34375 C 88.316406 -306.53125 112.789062 -307.894531 150.53125 -308.4375 C 189.082031 -308.988281 213.960938 -308.441406 225.171875 -306.796875 C 260.171875 -301.328125 277.671875 -281.367188 277.671875 -246.921875 C 277.671875 -233.796875 274.800781 -221.078125 269.0625 -208.765625 C 264.957031 -198.921875 255.9375 -189.21875 242 -179.65625 C 281.375 -164.613281 301.0625 -138.222656 301.0625 -100.484375 C 301.0625 -86.265625 298.328125 -72.59375 292.859375 -59.46875 C 281.640625 -33.769531 249.097656 -15.722656 195.234375 -5.328125 Z M 195.234375 -5.328125 "/></g></g></g></svg>