<svg xmlns="http://www.w3.org/2000/svg" xmlns:xlink="http://www.w3.org/1999/xlink" width="1024" zoomAndPan="magnify" viewBox="0 0 768 767.999994" height="1024" preserveAspectRatio="xMidYMid meet" version="1.2"><defs/><g id="b16d425b93"><rect x="0" width="768" y="0" height="767.999994" style="fill:#ffffff;fill-opacity:1;stroke:none;"/><rect x="0" width="768" y="0" height="767.999994" style="fill:#7ed957;fill-opacity:1;stroke:none;"/><g style="fill:#181819;fill-opacity:1;"><g transform="translate(231.833567, 542.894993)"><path style="stroke:none" d="M 72.1875 -148.484375 C 83.945312 -149.296875 95.707031 -150.113281 107.46875 -150.9375 C 121.40625 -152.03125 133.984375 -153.945312 145.203125 -156.6875 C 176.097656 -164.613281 192.640625 -169.125 194.828125 -170.21875 C 212.867188 -176.78125 225.992188 -186.625 234.203125 -199.75 C 241.035156 -210.6875 244.453125 -221.894531 244.453125 -233.375 C 244.453125 -256.894531 231.738281 -271.253906 206.3125 -276.453125 C 198.382812 -277.816406 184.03125 -278.5 163.25 -278.5 C 123.875 -278.5 98.578125 -276.859375 87.359375 -273.578125 C 78.609375 -270.566406 73.960938 -264.960938 73.421875 -256.765625 C 73.421875 -234.066406 73.007812 -199.882812 72.1875 -154.21875 Z M 315 -10.25 C 315 -7.519531 313.695312 -4.441406 311.09375 -1.015625 C 308.5 2.398438 305.835938 4.242188 303.109375 4.515625 C 297.640625 5.054688 292.304688 5.328125 287.109375 5.328125 C 262.222656 5.328125 243.765625 -0.957031 231.734375 -13.53125 C 220.523438 -24.75 212.460938 -43.890625 207.546875 -70.953125 C 200.703125 -107.867188 176.363281 -125.914062 134.53125 -125.09375 C 115.394531 -122.363281 94.476562 -120.316406 71.78125 -118.953125 C 71.507812 -83.671875 71.921875 -44.84375 73.015625 -2.46875 C 73.015625 5.195312 67.132812 9.4375 55.375 10.25 C 44.976562 11.070312 39.644531 6.832031 39.375 -2.46875 C 38.007812 -127.425781 38.421875 -213.691406 40.609375 -261.265625 C 41.148438 -274.117188 44.15625 -283.960938 49.625 -290.796875 C 55.09375 -297.640625 65.078125 -302.15625 79.578125 -304.34375 C 95.160156 -307.34375 118.675781 -308.984375 150.125 -309.265625 C 179.375 -309.535156 200.425781 -308.710938 213.28125 -306.796875 C 237.613281 -303.242188 255.25 -293.535156 266.1875 -277.671875 C 275.488281 -264.546875 279.457031 -248.414062 278.09375 -229.28125 C 277 -213.414062 272.894531 -199.332031 265.78125 -187.03125 C 254.300781 -166.519531 230.101562 -150.390625 193.1875 -138.640625 C 218.34375 -127.148438 232.972656 -109.648438 237.078125 -86.140625 C 240.898438 -64.535156 245.546875 -50.175781 251.015625 -43.0625 C 261.128906 -30.488281 279.453125 -24.75 305.984375 -25.84375 C 308.984375 -26.382812 311.304688 -24.332031 312.953125 -19.6875 C 314.316406 -16.675781 315 -13.53125 315 -10.25 Z M 315 -10.25 "/></g></g></g></svg>